<mxfile host="app.diagrams.net" agent="Mozilla/5.0 (Windows NT 10.0; Win64; x64) AppleWebKit/537.36 (KHTML, like Gecko) Chrome/134.0.0.0 Safari/537.36 OPR/119.0.0.0" version="27.2.0">
  <diagram name="PÃ¡gina-1" id="NE-qH7aZryAqYWC-E4wM">
    <mxGraphModel grid="1" page="1" gridSize="10" guides="1" tooltips="1" connect="1" arrows="1" fold="1" pageScale="1" pageWidth="827" pageHeight="1169" math="0" shadow="0">
      <root>
        <mxCell id="0" />
        <mxCell id="1" parent="0" />
        <mxCell id="7YTAoBE40pwMSV6XxfoY-1" value="DSS - Gerenciar Armas" style="text;strokeColor=none;fillColor=none;html=1;fontSize=24;fontStyle=1;verticalAlign=middle;align=center;" vertex="1" parent="1">
          <mxGeometry x="230" y="110" width="350" height="60" as="geometry" />
        </mxCell>
        <mxCell id="7YTAoBE40pwMSV6XxfoY-2" value="Usuario" style="shape=umlActor;verticalLabelPosition=bottom;verticalAlign=top;html=1;" vertex="1" parent="1">
          <mxGeometry x="200" y="150" width="30" height="60" as="geometry" />
        </mxCell>
        <mxCell id="7YTAoBE40pwMSV6XxfoY-3" value="" style="endArrow=none;dashed=1;endFill=0;endSize=12;html=1;rounded=0;startFill=0;" edge="1" parent="1">
          <mxGeometry width="160" relative="1" as="geometry">
            <mxPoint x="215" y="240" as="sourcePoint" />
            <mxPoint x="215" y="620" as="targetPoint" />
            <Array as="points">
              <mxPoint x="215" y="350" />
            </Array>
          </mxGeometry>
        </mxCell>
        <mxCell id="7YTAoBE40pwMSV6XxfoY-4" value=":Sistema" style="shape=umlLifeline;perimeter=lifelinePerimeter;whiteSpace=wrap;html=1;container=0;dropTarget=0;collapsible=0;recursiveResize=0;outlineConnect=0;portConstraint=eastwest;newEdgeStyle={&quot;edgeStyle&quot;:&quot;elbowEdgeStyle&quot;,&quot;elbow&quot;:&quot;vertical&quot;,&quot;curved&quot;:0,&quot;rounded&quot;:0};" vertex="1" parent="1">
          <mxGeometry x="460" y="180" width="130" height="440" as="geometry" />
        </mxCell>
        <mxCell id="7YTAoBE40pwMSV6XxfoY-5" value="1: Iniciar &quot;Gerenciamento de armas&quot;" style="text;whiteSpace=wrap;html=1;" vertex="1" parent="1">
          <mxGeometry x="257" y="240" width="250" height="25" as="geometry" />
        </mxCell>
        <mxCell id="7YTAoBE40pwMSV6XxfoY-6" value="" style="endArrow=classic;endFill=1;endSize=12;html=1;rounded=0;" edge="1" parent="1">
          <mxGeometry width="160" relative="1" as="geometry">
            <mxPoint x="220" y="274.5" as="sourcePoint" />
            <mxPoint x="520" y="274.5" as="targetPoint" />
          </mxGeometry>
        </mxCell>
        <mxCell id="7YTAoBE40pwMSV6XxfoY-7" value="" style="html=1;points=[];perimeter=orthogonalPerimeter;outlineConnect=0;targetShapes=umlLifeline;portConstraint=eastwest;newEdgeStyle={&quot;edgeStyle&quot;:&quot;elbowEdgeStyle&quot;,&quot;elbow&quot;:&quot;vertical&quot;,&quot;curved&quot;:0,&quot;rounded&quot;:0};" vertex="1" parent="1">
          <mxGeometry x="520" y="254" width="10" height="356" as="geometry" />
        </mxCell>
        <mxCell id="7YTAoBE40pwMSV6XxfoY-11" value="" style="html=1;points=[];perimeter=orthogonalPerimeter;outlineConnect=0;targetShapes=umlLifeline;portConstraint=eastwest;newEdgeStyle={&quot;edgeStyle&quot;:&quot;elbowEdgeStyle&quot;,&quot;elbow&quot;:&quot;vertical&quot;,&quot;curved&quot;:0,&quot;rounded&quot;:0};" vertex="1" parent="1">
          <mxGeometry x="210" y="255" width="10" height="345" as="geometry" />
        </mxCell>
        <mxCell id="7YTAoBE40pwMSV6XxfoY-23" value="&amp;lt;&amp;lt;mostra lista de armas&amp;gt;&amp;gt;" style="html=1;verticalAlign=bottom;endArrow=open;dashed=1;endSize=8;curved=0;rounded=0;" edge="1" parent="1">
          <mxGeometry relative="1" as="geometry">
            <mxPoint x="515.5" y="300" as="sourcePoint" />
            <mxPoint x="220" y="300" as="targetPoint" />
          </mxGeometry>
        </mxCell>
        <mxCell id="7YTAoBE40pwMSV6XxfoY-24" value="opt" style="shape=umlFrame;whiteSpace=wrap;html=1;pointerEvents=0;gradientColor=none;swimlaneFillColor=none;" vertex="1" parent="1">
          <mxGeometry x="100" y="330" width="545" height="233" as="geometry" />
        </mxCell>
        <mxCell id="7YTAoBE40pwMSV6XxfoY-25" value="2: criaNovaArma(nome, danoBase)" style="text;whiteSpace=wrap;html=1;" vertex="1" parent="1">
          <mxGeometry x="270" y="330" width="250" height="25" as="geometry" />
        </mxCell>
        <mxCell id="7YTAoBE40pwMSV6XxfoY-26" value="" style="endArrow=classic;endFill=1;endSize=12;html=1;rounded=0;" edge="1" parent="1">
          <mxGeometry width="160" relative="1" as="geometry">
            <mxPoint x="220" y="354.5" as="sourcePoint" />
            <mxPoint x="520" y="354.5" as="targetPoint" />
          </mxGeometry>
        </mxCell>
        <mxCell id="7YTAoBE40pwMSV6XxfoY-27" value="&amp;lt;&amp;lt;confirmaCriacaoEAtualizaLista&amp;gt;&amp;gt;" style="html=1;verticalAlign=bottom;endArrow=open;dashed=1;endSize=8;curved=0;rounded=0;" edge="1" parent="1">
          <mxGeometry relative="1" as="geometry">
            <mxPoint x="515.5" y="380" as="sourcePoint" />
            <mxPoint x="220" y="380" as="targetPoint" />
          </mxGeometry>
        </mxCell>
        <mxCell id="7YTAoBE40pwMSV6XxfoY-28" value="2: atualizaArma(idDaArma, nome, danoBase)" style="text;whiteSpace=wrap;html=1;" vertex="1" parent="1">
          <mxGeometry x="250" y="402.14" width="250" height="25" as="geometry" />
        </mxCell>
        <mxCell id="7YTAoBE40pwMSV6XxfoY-29" value="" style="endArrow=classic;endFill=1;endSize=12;html=1;rounded=0;" edge="1" parent="1">
          <mxGeometry width="160" relative="1" as="geometry">
            <mxPoint x="220" y="426.64" as="sourcePoint" />
            <mxPoint x="520" y="426.64" as="targetPoint" />
          </mxGeometry>
        </mxCell>
        <mxCell id="7YTAoBE40pwMSV6XxfoY-30" value="&amp;lt;&amp;lt;confirmaEdicaoEAtualizaLista&amp;gt;&amp;gt;" style="html=1;verticalAlign=bottom;endArrow=open;dashed=1;endSize=8;curved=0;rounded=0;" edge="1" parent="1">
          <mxGeometry relative="1" as="geometry">
            <mxPoint x="515.5" y="452.14" as="sourcePoint" />
            <mxPoint x="220" y="452.14" as="targetPoint" />
          </mxGeometry>
        </mxCell>
        <mxCell id="7YTAoBE40pwMSV6XxfoY-31" value="2: deletaArma(idArma)" style="text;whiteSpace=wrap;html=1;" vertex="1" parent="1">
          <mxGeometry x="298" y="480" width="130" height="25" as="geometry" />
        </mxCell>
        <mxCell id="7YTAoBE40pwMSV6XxfoY-32" value="" style="endArrow=classic;endFill=1;endSize=12;html=1;rounded=0;" edge="1" parent="1">
          <mxGeometry width="160" relative="1" as="geometry">
            <mxPoint x="220" y="504.5" as="sourcePoint" />
            <mxPoint x="520" y="504.5" as="targetPoint" />
          </mxGeometry>
        </mxCell>
        <mxCell id="7YTAoBE40pwMSV6XxfoY-33" value="&amp;lt;&amp;lt;confirmaDelecaoEAtualizaLista&amp;gt;&amp;gt;" style="html=1;verticalAlign=bottom;endArrow=open;dashed=1;endSize=8;curved=0;rounded=0;" edge="1" parent="1">
          <mxGeometry relative="1" as="geometry">
            <mxPoint x="515.5" y="530" as="sourcePoint" />
            <mxPoint x="220" y="530" as="targetPoint" />
          </mxGeometry>
        </mxCell>
      </root>
    </mxGraphModel>
  </diagram>
</mxfile>
